<?xml version="1.0" encoding="UTF-8"?>
<svg xmlns="http://www.w3.org/2000/svg"
     xmlns:xlink="http://www.w3.org/1999/xlink"
     xmlns:gadfly="http://www.gadflyjl.org/ns"
     version="1.2"
     width="152.4mm" height="101.6mm" viewBox="0 0 152.4 101.6"
     stroke="none"
     fill="#000000"
     stroke-width="0.3"
     font-size="3.88"
>
<g class="plotroot xscalable yscalable" id="fig-2a6e8b46312d44b6ba16f8bd2b1707c7-element-1">
  <g font-size="3.88" font-family="'PT Sans','Helvetica Neue','Helvetica',sans-serif" fill="#564A55" stroke="#000000" stroke-opacity="0.000" id="fig-2a6e8b46312d44b6ba16f8bd2b1707c7-element-2">
    <text x="82.11" y="89.99" text-anchor="middle" dy="0.6em">x</text>
  </g>
  <g class="guide xlabels" font-size="2.82" font-family="'PT Sans Caption','Helvetica Neue','Helvetica',sans-serif" fill="#6C606B" id="fig-2a6e8b46312d44b6ba16f8bd2b1707c7-element-3">
    <text x="18.83" y="83.32" text-anchor="middle" dy="0.6em">0</text>
    <text x="50.47" y="83.32" text-anchor="middle" dy="0.6em">100</text>
    <text x="82.11" y="83.32" text-anchor="middle" dy="0.6em">200</text>
    <text x="113.76" y="83.32" text-anchor="middle" dy="0.6em">300</text>
    <text x="145.4" y="83.32" text-anchor="middle" dy="0.6em">400</text>
  </g>
  <g clip-path="url(#fig-2a6e8b46312d44b6ba16f8bd2b1707c7-element-5)" id="fig-2a6e8b46312d44b6ba16f8bd2b1707c7-element-4">
    <g pointer-events="visible" opacity="1" fill="#000000" fill-opacity="0.000" stroke="#000000" stroke-opacity="0.000" class="guide background" id="fig-2a6e8b46312d44b6ba16f8bd2b1707c7-element-6">
      <rect x="16.83" y="5" width="130.57" height="77.32"/>
    </g>
    <g class="guide ygridlines xfixed" stroke-dasharray="0.5,0.5" stroke-width="0.2" stroke="#D0D0E0" id="fig-2a6e8b46312d44b6ba16f8bd2b1707c7-element-7">
      <path fill="none" d="M16.83,80.32 L 147.4 80.32"/>
      <path fill="none" d="M16.83,55.88 L 147.4 55.88"/>
      <path fill="none" d="M16.83,31.44 L 147.4 31.44"/>
      <path fill="none" d="M16.83,7 L 147.4 7"/>
    </g>
    <g class="guide xgridlines yfixed" stroke-dasharray="0.5,0.5" stroke-width="0.2" stroke="#D0D0E0" id="fig-2a6e8b46312d44b6ba16f8bd2b1707c7-element-8">
      <path fill="none" d="M18.83,5 L 18.83 82.32"/>
      <path fill="none" d="M50.47,5 L 50.47 82.32"/>
      <path fill="none" d="M82.11,5 L 82.11 82.32"/>
      <path fill="none" d="M113.76,5 L 113.76 82.32"/>
      <path fill="none" d="M145.4,5 L 145.4 82.32"/>
    </g>
    <g class="plotpanel" id="fig-2a6e8b46312d44b6ba16f8bd2b1707c7-element-9">
      <g stroke-width="0.3" fill="#000000" fill-opacity="0.000" class="geometry" stroke="#00BFFF" id="fig-2a6e8b46312d44b6ba16f8bd2b1707c7-element-10">
        <path fill="none" d="M19.14,22.53 L 19.46 27.92 19.78 32.74 20.09 37.05 20.41 40.9 20.72 44.34 21.04 47.4 21.36 50.14 21.67 52.58 21.99 54.75 22.31 56.69 22.62 58.41 22.94 59.92 23.26 61.25 23.57 62.42 23.89 63.44 24.21 64.34 24.52 65.12 24.84 65.79 25.15 66.37 25.47 66.86 25.79 67.27 26.1 67.62 26.42 67.89 26.74 68.12 27.05 68.28 27.37 68.4 27.69 68.48 28 68.52 28.32 68.52 28.64 68.49 28.95 68.42 29.27 68.33 29.58 68.22 29.9 68.08 30.22 67.92 30.53 67.75 30.85 67.55 31.17 67.34 31.48 67.11 31.8 66.88 32.12 66.62 32.43 66.36 32.75 66.09 33.07 65.8 33.38 65.51 33.7 65.21 34.01 64.9 34.33 64.59 34.65 64.27 34.96 63.94 35.28 63.61 35.6 63.27 35.91 62.93 36.23 62.58 36.55 62.23 36.86 61.87 37.18 61.52 37.5 61.15 37.81 60.79 38.13 60.42 38.44 60.05 38.76 59.68 39.08 59.31 39.39 58.93 39.71 58.56 40.03 58.18 40.34 57.8 40.66 57.42 40.98 57.03 41.29 56.65 41.61 56.26 41.93 55.88 42.24 55.49 42.56 55.11 42.87 54.72 43.19 54.33 43.51 53.95 43.82 53.56 44.14 53.17 44.46 52.78 44.77 52.4 45.09 52.01 45.41 51.62 45.72 51.23 46.04 50.85 46.36 50.46 46.67 50.08 46.99 49.69 47.31 49.31 47.62 48.93 47.94 48.55 48.25 48.17 48.57 47.79 48.89 47.41 49.2 47.03 49.52 46.65 49.84 46.28 50.15 45.91 50.47 45.53 50.79 45.16 51.1 44.79 51.42 44.42 51.74 44.06 52.05 43.69 52.37 43.33 52.68 42.97 53 42.6 53.32 42.25 53.63 41.89 53.95 41.53 54.27 41.18 54.58 40.83 54.9 40.48 55.22 40.13 55.53 39.78 55.85 39.44 56.17 39.1 56.48 38.76 56.8 38.42 57.11 38.08 57.43 37.75 57.75 37.41 58.06 37.08 58.38 36.76 58.7 36.43 59.01 36.11 59.33 35.78 59.65 35.47 59.96 35.15 60.28 34.83 60.6 34.52 60.91 34.21 61.23 33.9 61.54 33.6 61.86 33.29 62.18 32.99 62.49 32.69 62.81 32.39 63.13 32.1 63.44 31.81 63.76 31.52 64.08 31.23 64.39 30.94 64.71 30.66 65.03 30.38 65.34 30.1 65.66 29.82 65.97 29.55 66.29 29.28 66.61 29.01 66.92 28.74 67.24 28.47 67.56 28.21 67.87 27.95 68.19 27.7 68.51 27.44 68.82 27.19 69.14 26.94 69.46 26.69 69.77 26.44 70.09 26.2 70.4 25.96 70.72 25.72 71.04 25.49 71.35 25.25 71.67 25.02 71.99 24.8 72.3 24.57 72.62 24.35 72.94 24.13 73.25 23.91 73.57 23.69 73.89 23.48 74.2 23.27 74.52 23.06 74.83 22.85 75.15 22.65 75.47 22.45 75.78 22.25 76.1 22.05 76.42 21.86 76.73 21.67 77.05 21.48 77.37 21.29 77.68 21.11 78 20.93 78.32 20.75 78.63 20.57 78.95 20.4 79.26 20.23 79.58 20.06 79.9 19.89 80.21 19.73 80.53 19.56 80.85 19.4 81.16 19.25 81.48 19.09 81.8 18.94 82.11 18.79 82.43 18.64 82.75 18.49 83.06 18.35 83.38 18.21 83.7 18.07 84.01 17.93 84.33 17.79 84.64 17.66 84.96 17.53 85.28 17.4 85.59 17.28 85.91 17.15 86.23 17.03 86.54 16.91 86.86 16.79 87.18 16.68 87.49 16.56 87.81 16.45 88.13 16.34 88.44 16.23 88.76 16.13 89.07 16.03 89.39 15.92 89.71 15.82 90.02 15.73 90.34 15.63 90.66 15.54 90.97 15.45 91.29 15.36 91.61 15.27 91.92 15.18 92.24 15.1 92.56 15.02 92.87 14.94 93.19 14.86 93.5 14.78 93.82 14.7 94.14 14.63 94.45 14.56 94.77 14.49 95.09 14.42 95.4 14.36 95.72 14.29 96.04 14.23 96.35 14.17 96.67 14.11 96.99 14.05 97.3 13.99 97.62 13.94 97.93 13.88 98.25 13.83 98.57 13.78 98.88 13.73 99.2 13.69 99.52 13.64 99.83 13.6 100.15 13.55 100.47 13.51 100.78 13.47 101.1 13.43 101.42 13.4 101.73 13.36 102.05 13.33 102.36 13.29 102.68 13.26 103 13.23 103.31 13.2 103.63 13.18 103.95 13.15 104.26 13.12 104.58 13.1 104.9 13.08 105.21 13.06 105.53 13.04 105.85 13.02 106.16 13 106.48 12.99 106.79 12.97 107.11 12.96 107.43 12.94 107.74 12.93 108.06 12.92 108.38 12.91 108.69 12.9 109.01 12.9 109.33 12.89 109.64 12.88 109.96 12.88 110.28 12.88 110.59 12.87 110.91 12.87 111.22 12.87 111.54 12.87 111.86 12.88 112.17 12.88 112.49 12.88 112.81 12.89 113.12 12.89 113.44 12.9 113.76 12.91 114.07 12.91 114.39 12.92 114.71 12.93 115.02 12.94 115.34 12.95 115.66 12.97 115.97 12.98 116.29 12.99 116.6 13.01 116.92 13.02 117.24 13.04 117.55 13.06 117.87 13.07 118.19 13.09 118.5 13.11 118.82 13.13 119.14 13.15 119.45 13.17 119.77 13.19 120.09 13.21 120.4 13.24 120.72 13.26 121.03 13.28 121.35 13.31 121.67 13.33 121.98 13.36 122.3 13.39 122.62 13.41 122.93 13.44 123.25 13.47 123.57 13.5 123.88 13.53 124.2 13.56 124.52 13.59 124.83 13.62 125.15 13.65 125.46 13.68 125.78 13.71 126.1 13.75 126.41 13.78 126.73 13.81 127.05 13.85 127.36 13.88 127.68 13.91 128 13.95 128.31 13.98 128.63 14.02 128.95 14.06 129.26 14.09 129.58 14.13 129.89 14.17 130.21 14.21 130.53 14.24 130.84 14.28 131.16 14.32 131.48 14.36 131.79 14.4 132.11 14.44 132.43 14.48 132.74 14.52 133.06 14.56 133.38 14.6 133.69 14.64 134.01 14.68 134.32 14.72 134.64 14.77 134.96 14.81 135.27 14.85 135.59 14.89 135.91 14.93 136.22 14.98 136.54 15.02 136.86 15.06 137.17 15.11 137.49 15.15 137.81 15.19 138.12 15.24 138.44 15.28 138.75 15.33 139.07 15.37 139.39 15.41 139.7 15.46 140.02 15.5 140.34 15.55 140.65 15.59 140.97 15.64 141.29 15.68 141.6 15.73 141.92 15.77 142.24 15.82 142.55 15.86 142.87 15.91 143.18 15.96 143.5 16 143.82 16.05 144.13 16.09 144.45 16.14 144.77 16.18 145.08 16.23 145.4 16.28"/>
      </g>
    </g>
  </g>
  <g class="guide ylabels" font-size="2.82" font-family="'PT Sans Caption','Helvetica Neue','Helvetica',sans-serif" fill="#6C606B" id="fig-2a6e8b46312d44b6ba16f8bd2b1707c7-element-11">
    <text x="15.83" y="80.32" text-anchor="end" dy="0.35em">3.5</text>
    <text x="15.83" y="55.88" text-anchor="end" dy="0.35em">3.6</text>
    <text x="15.83" y="31.44" text-anchor="end" dy="0.35em">3.7</text>
    <text x="15.83" y="7" text-anchor="end" dy="0.35em">3.8</text>
  </g>
  <g font-size="3.88" font-family="'PT Sans','Helvetica Neue','Helvetica',sans-serif" fill="#564A55" stroke="#000000" stroke-opacity="0.000" id="fig-2a6e8b46312d44b6ba16f8bd2b1707c7-element-12">
    <text x="8.81" y="43.66" text-anchor="end" dy="0.35em">y</text>
  </g>
</g>
<defs>
<clipPath id="fig-2a6e8b46312d44b6ba16f8bd2b1707c7-element-5">
  <path d="M16.83,5 L 147.4 5 147.4 82.32 16.83 82.32" />
</clipPath
></defs>
</svg>
