<?xml version="1.0" encoding="UTF-8"?>
<svg xmlns="http://www.w3.org/2000/svg"
     xmlns:xlink="http://www.w3.org/1999/xlink"
     xmlns:gadfly="http://www.gadflyjl.org/ns"
     version="1.2"
     width="152.4mm" height="101.6mm" viewBox="0 0 152.4 101.6"
     stroke="none"
     fill="#000000"
     stroke-width="0.3"
     font-size="3.88"
>
<g class="plotroot xscalable yscalable" id="img-8c90b94e-1">
  <g font-size="3.88" font-family="'PT Sans','Helvetica Neue','Helvetica',sans-serif" fill="#564A55" stroke="#000000" stroke-opacity="0.000" id="img-8c90b94e-2">
    <text x="85.25" y="89.99" text-anchor="middle" dy="0.6em">Years</text>
  </g>
  <g class="guide xlabels" font-size="2.82" font-family="'PT Sans Caption','Helvetica Neue','Helvetica',sans-serif" fill="#6C606B" id="img-8c90b94e-3">
    <text x="25.09" y="83.32" text-anchor="middle" dy="0.6em">0</text>
    <text x="55.17" y="83.32" text-anchor="middle" dy="0.6em">50</text>
    <text x="85.25" y="83.32" text-anchor="middle" dy="0.6em">100</text>
    <text x="115.32" y="83.32" text-anchor="middle" dy="0.6em">150</text>
    <text x="145.4" y="83.32" text-anchor="middle" dy="0.6em">200</text>
  </g>
<g clip-path="url(#img-8c90b94e-4)">
  <g id="img-8c90b94e-5">
    <g pointer-events="visible" opacity="1" fill="#000000" fill-opacity="0.000" stroke="#000000" stroke-opacity="0.000" class="guide background" id="img-8c90b94e-6">
      <rect x="23.09" y="12.61" width="124.31" height="69.7"/>
    </g>
    <g class="guide ygridlines xfixed" stroke-dasharray="0.5,0.5" stroke-width="0.2" stroke="#D0D0E0" id="img-8c90b94e-7">
      <path fill="none" d="M23.09,80.32 L 147.4 80.32"/>
      <path fill="none" d="M23.09,63.89 L 147.4 63.89"/>
      <path fill="none" d="M23.09,47.46 L 147.4 47.46"/>
      <path fill="none" d="M23.09,31.04 L 147.4 31.04"/>
      <path fill="none" d="M23.09,14.61 L 147.4 14.61"/>
    </g>
    <g class="guide xgridlines yfixed" stroke-dasharray="0.5,0.5" stroke-width="0.2" stroke="#D0D0E0" id="img-8c90b94e-8">
      <path fill="none" d="M25.09,12.61 L 25.09 82.32"/>
      <path fill="none" d="M55.17,12.61 L 55.17 82.32"/>
      <path fill="none" d="M85.25,12.61 L 85.25 82.32"/>
      <path fill="none" d="M115.32,12.61 L 115.32 82.32"/>
      <path fill="none" d="M145.4,12.61 L 145.4 82.32"/>
    </g>
    <g class="plotpanel" id="img-8c90b94e-9">
      <g stroke-width="0.3" fill="#000000" fill-opacity="0.000" class="geometry" stroke-dasharray="none" stroke="#00BFFF" id="img-8c90b94e-10">
        <path fill="none" d="M25.69,63.89 L 25.75 59.41 25.81 55.01 25.87 50.69 25.93 46.44 25.99 42.27 26.05 38.17 26.11 34.15 26.17 30.2 26.23 26.32 26.29 22.51 26.35 23.26 26.41 23.99 26.47 24.72 26.53 25.43 26.59 26.14 26.65 26.84 26.71 27.54 26.77 28.22 26.83 28.9 26.89 29.57 26.95 30.23 27.01 30.88 27.07 31.53 27.13 32.16 27.19 32.79 27.25 33.42 27.31 34.03 27.37 34.64 27.43 35.24 27.49 35.83 27.55 36.42 27.61 37 27.67 37.57 27.73 38.14 27.79 38.7 27.85 39.25 27.91 39.79 27.97 40.33 28.03 40.86 28.09 41.39 28.15 41.91 28.21 42.42 28.27 42.93 28.33 43.43 28.39 43.92 28.45 44.41 28.51 44.89 28.57 45.37 28.63 45.84 28.69 46.31 28.75 46.76 28.81 47.22 28.87 47.67 28.93 48.11 28.99 48.54 29.05 48.97 29.11 49.4 29.17 49.82 29.23 50.24 29.29 50.65 29.35 51.05 29.41 51.45 29.47 51.84 29.53 52.23 29.59 52.62 29.65 53 29.71 53.37 29.77 53.74 29.83 54.11 29.89 54.47 29.94 54.82 30 55.17 30.06 55.52 30.12 55.86 30.18 56.2 30.24 56.53 30.3 56.86 30.36 57.19 30.42 57.51 30.48 57.82 30.54 58.13 30.6 58.44 30.66 58.75 30.72 59.04 30.78 59.34 30.84 59.63 30.9 59.92 30.96 60.2 31.02 60.48 31.08 60.76 31.14 61.03 31.2 61.3 31.26 61.56 31.32 61.83 31.38 62.08 31.44 62.34 31.5 62.59 31.56 62.84 31.62 63.08 31.68 63.32 31.74 63.56 31.8 63.79 31.86 64.02 31.92 64.25 31.98 64.47 32.04 64.69 32.1 64.91 32.16 65.12 32.22 65.33 32.28 65.54 32.34 65.75 32.4 65.95 32.46 66.15 32.52 66.35 32.58 66.54 32.64 66.73 32.7 66.92 32.76 67.1 32.82 67.28 32.88 67.46 32.94 67.64 33 67.81 33.06 67.99 33.12 68.16 33.18 68.32 33.24 68.49 33.3 68.65 33.36 68.81 33.42 68.96 33.48 69.12 33.54 69.27 33.6 69.42 33.66 69.56 33.72 69.71 33.78 69.85 33.84 69.99 33.9 70.13 33.96 70.26 34.02 70.39 34.08 70.52 34.14 70.65 34.2 70.78 34.26 70.9 34.32 71.03 34.38 71.15 34.44 71.26 34.5 71.38 34.56 71.5 34.62 71.61 34.68 71.72 34.74 71.83 34.8 71.93 34.86 72.04 34.92 72.14 34.98 72.24 35.04 72.34 35.09 72.44 35.15 72.53 35.21 72.63 35.27 72.72 35.33 72.81 35.39 72.9 35.45 72.99 35.51 73.07 35.57 73.15 35.63 73.24 35.69 73.32 35.75 73.4 35.81 73.47 35.87 73.55 35.93 73.62 35.99 73.7 36.05 73.77 36.11 73.84 36.17 73.91 36.23 73.97 36.29 74.04 36.35 74.1 36.41 74.17 36.47 74.23 36.53 74.29 36.59 74.35 36.65 74.4 36.71 74.46 36.77 74.52 36.83 74.57 36.89 74.62 36.95 74.67 37.01 74.72 37.07 74.77 37.13 74.82 37.19 74.87 37.25 74.91 37.31 74.95 37.37 75 37.43 75.04 37.49 75.08 37.55 75.12 37.61 75.16 37.67 75.2 37.73 75.23 37.79 75.27 37.85 75.3 37.91 75.33 37.97 75.37 38.03 75.4 38.09 75.43 38.15 75.46 38.21 75.49 38.27 75.51 38.33 75.54 38.39 75.57 38.45 75.59 38.51 75.62 38.57 75.64 38.63 75.66 38.69 75.68 38.75 75.7 38.81 75.72 38.87 75.74 38.93 75.76 38.99 75.78 39.05 75.79 39.11 75.81 39.17 75.82 39.23 75.84 39.29 75.85 39.35 75.86 39.41 75.87 39.47 75.89 39.53 75.9 39.59 75.91 39.65 75.91 39.71 75.92 39.77 75.93 39.83 75.94 39.89 75.94 39.95 75.95 40.01 75.95 40.07 75.96 40.13 75.96 40.18 75.97 40.24 75.97 40.3 75.97 40.36 75.97 40.42 75.97 40.48 75.97 40.54 75.97 40.6 75.97 40.66 75.97 40.72 75.97 40.78 75.97 40.84 75.96 40.9 75.96 40.96 75.96 41.02 75.95 41.08 75.95 41.14 75.94 41.2 75.93 41.26 75.93 41.32 75.92 41.38 75.91 41.44 75.91 41.5 75.9 41.56 75.89 41.62 75.88 41.68 75.87 41.74 75.86 41.8 75.85 41.86 75.84 41.92 75.83 41.98 75.82 42.04 75.8 42.1 75.79 42.16 75.78 42.22 75.77 42.28 75.75 42.34 75.74 42.4 75.72 42.46 75.71 42.52 75.69 42.58 75.68 42.64 75.66 42.7 75.65 42.76 75.63 42.82 75.62 42.88 75.6 42.94 75.58 43 75.56 43.06 75.55 43.12 75.53 43.18 75.51 43.24 75.49 43.3 75.47 43.36 75.45 43.42 75.43 43.48 75.41 43.54 75.39 43.6 75.37 43.66 75.35 43.72 75.33 43.78 75.31 43.84 75.29 43.9 75.27 43.96 75.25 44.02 75.23 44.08 75.2 44.14 75.18 44.2 75.16 44.26 75.14 44.32 75.11 44.38 75.09 44.44 75.07 44.5 75.04 44.56 75.02 44.62 75 44.68 74.97 44.74 74.95 44.8 74.92 44.86 74.9 44.92 74.88 44.98 74.85 45.04 74.83 45.1 74.8 45.16 74.78 45.22 74.75 45.28 74.72 45.33 74.7 45.39 74.67 45.45 74.65 45.51 74.62 45.57 74.59 45.63 74.57 45.69 74.54 45.75 74.52 45.81 74.49 45.87 74.46 45.93 74.43 45.99 74.41 46.05 74.38 46.11 74.35 46.17 74.33 46.23 74.3 46.29 74.27 46.35 74.24 46.41 74.22 46.47 74.19 46.53 74.16 46.59 74.13 46.65 74.1 46.71 74.08 46.77 74.05 46.83 74.02 46.89 73.99 46.95 73.96 47.01 73.93 47.07 73.91 47.13 73.88 47.19 73.85 47.25 73.82 47.31 73.79 47.37 73.76 47.43 73.73 47.49 73.7 47.55 73.67 47.61 73.65 47.67 73.62 47.73 73.59 47.79 73.56 47.85 73.53 47.91 73.5 47.97 73.47 48.03 73.44 48.09 73.41 48.15 73.38 48.21 73.35 48.27 73.32 48.33 73.29 48.39 73.27 48.45 73.24 48.51 73.21 48.57 73.18 48.63 73.15 48.69 73.12 48.75 73.09 48.81 73.06 48.87 73.03 48.93 73 48.99 72.97 49.05 72.94 49.11 72.91 49.17 72.88 49.23 72.85 49.29 72.82 49.35 72.79 49.41 72.76 49.47 72.73 49.53 72.7 49.59 72.67 49.65 72.65 49.71 72.62 49.77 72.59 49.83 72.56 49.89 72.53 49.95 72.5 50.01 72.47 50.07 72.44 50.13 72.41 50.19 72.38 50.25 72.35 50.31 72.32 50.37 72.29 50.43 72.26 50.48 72.23 50.54 72.2 50.6 72.18 50.66 72.15 50.72 72.12 50.78 72.09 50.84 72.06 50.9 72.03 50.96 72 51.02 71.97 51.08 71.94 51.14 71.91 51.2 71.88 51.26 71.86 51.32 71.83 51.38 71.8 51.44 71.77 51.5 71.74 51.56 71.71 51.62 71.68 51.68 71.66 51.74 71.63 51.8 71.6 51.86 71.57 51.92 71.54 51.98 71.51 52.04 71.48 52.1 71.46 52.16 71.43 52.22 71.4 52.28 71.37 52.34 71.34 52.4 71.32 52.46 71.29 52.52 71.26 52.58 71.23 52.64 71.2 52.7 71.18 52.76 71.15 52.82 71.12 52.88 71.09 52.94 71.07 53 71.04 53.06 71.01 53.12 70.98 53.18 70.96 53.24 70.93 53.3 70.9 53.36 70.87 53.42 70.85 53.48 70.82 53.54 70.79 53.6 70.77 53.66 70.74 53.72 70.71 53.78 70.69 53.84 70.66 53.9 70.63 53.96 70.61 54.02 70.58 54.08 70.55 54.14 70.53 54.2 70.5 54.26 70.47 54.32 70.45 54.38 70.42 54.44 70.4 54.5 70.37 54.56 70.34 54.62 70.32 54.68 70.29 54.74 70.27 54.8 70.24 54.86 70.22 54.92 70.19 54.98 70.17 55.04 70.14 55.1 70.11 55.16 70.09 55.22 70.06 55.28 70.04 55.34 70.01 55.4 69.99 55.46 69.96 55.52 69.94 55.57 69.91 55.63 69.89 55.69 69.87 55.75 69.84 55.81 69.82 55.87 69.79 55.93 69.77 55.99 69.74 56.05 69.72 56.11 69.69 56.17 69.67 56.23 69.65 56.29 69.62 56.35 69.6 56.41 69.57 56.47 69.55 56.53 69.53 56.59 69.5 56.65 69.48 56.71 69.46 56.77 69.43 56.83 69.41 56.89 69.39 56.95 69.36 57.01 69.34 57.07 69.32 57.13 69.3 57.19 69.27 57.25 69.25 57.31 69.23 57.37 69.2 57.43 69.18 57.49 69.16 57.55 69.14 57.61 69.11 57.67 69.09 57.73 69.07 57.79 69.05 57.85 69.03 57.91 69 57.97 68.98 58.03 68.96 58.09 68.94 58.15 68.92 58.21 68.89 58.27 68.87 58.33 68.85 58.39 68.83 58.45 68.81 58.51 68.79 58.57 68.77 58.63 68.75 58.69 68.72 58.75 68.7 58.81 68.68 58.87 68.66 58.93 68.64 58.99 68.62 59.05 68.6 59.11 68.58 59.17 68.56 59.23 68.54 59.29 68.52 59.35 68.5 59.41 68.48 59.47 68.46 59.53 68.44 59.59 68.42 59.65 68.4 59.71 68.38 59.77 68.36 59.83 68.34 59.89 68.32 59.95 68.3 60.01 68.28 60.07 68.26 60.13 68.24 60.19 68.22 60.25 68.2 60.31 68.18 60.37 68.16 60.43 68.14 60.49 68.13 60.55 68.11 60.61 68.09 60.67 68.07 60.72 68.05 60.78 68.03 60.84 68.01 60.9 67.99 60.96 67.98 61.02 67.96 61.08 67.94 61.14 67.92 61.2 67.9 61.26 67.89 61.32 67.87 61.38 67.85 61.44 67.83 61.5 67.81 61.56 67.8 61.62 67.78 61.68 67.76 61.74 67.74 61.8 67.73 61.86 67.71 61.92 67.69 61.98 67.67 62.04 67.66 62.1 67.64 62.16 67.62 62.22 67.61 62.28 67.59 62.34 67.57 62.4 67.56 62.46 67.54 62.52 67.52 62.58 67.51 62.64 67.49 62.7 67.47 62.76 67.46 62.82 67.44 62.88 67.42 62.94 67.41 63 67.39 63.06 67.37 63.12 67.36 63.18 67.34 63.24 67.33 63.3 67.31 63.36 67.3 63.42 67.28 63.48 67.26 63.54 67.25 63.6 67.23 63.66 67.22 63.72 67.2 63.78 67.19 63.84 67.17 63.9 67.16 63.96 67.14 64.02 67.13 64.08 67.11 64.14 67.1 64.2 67.08 64.26 67.07 64.32 67.05 64.38 67.04 64.44 67.02 64.5 67.01 64.56 66.99 64.62 66.98 64.68 66.96 64.74 66.95 64.8 66.94 64.86 66.92 64.92 66.91 64.98 66.89 65.04 66.88 65.1 66.86 65.16 66.85 65.22 66.84 65.28 66.82 65.34 66.81 65.4 66.8 65.46 66.78 65.52 66.77 65.58 66.75 65.64 66.74 65.7 66.73 65.76 66.71 65.82 66.7 65.87 66.69 65.93 66.67 65.99 66.66 66.05 66.65 66.11 66.64 66.17 66.62 66.23 66.61 66.29 66.6 66.35 66.58 66.41 66.57 66.47 66.56 66.53 66.55 66.59 66.53 66.65 66.52 66.71 66.51 66.77 66.5 66.83 66.48 66.89 66.47 66.95 66.46 67.01 66.45 67.07 66.43 67.13 66.42 67.19 66.41 67.25 66.4 67.31 66.39 67.37 66.37 67.43 66.36 67.49 66.35 67.55 66.34 67.61 66.33 67.67 66.31 67.73 66.3 67.79 66.29 67.85 66.28 67.91 66.27 67.97 66.26 68.03 66.25 68.09 66.23 68.15 66.22 68.21 66.21 68.27 66.2 68.33 66.19 68.39 66.18 68.45 66.17 68.51 66.16 68.57 66.15 68.63 66.13 68.69 66.12 68.75 66.11 68.81 66.1 68.87 66.09 68.93 66.08 68.99 66.07 69.05 66.06 69.11 66.05 69.17 66.04 69.23 66.03 69.29 66.02 69.35 66.01 69.41 66 69.47 65.99 69.53 65.98 69.59 65.97 69.65 65.96 69.71 65.95 69.77 65.94 69.83 65.93 69.89 65.92 69.95 65.91 70.01 65.9 70.07 65.89 70.13 65.88 70.19 65.87 70.25 65.86 70.31 65.85 70.37 65.84 70.43 65.83 70.49 65.82 70.55 65.81 70.61 65.8 70.67 65.79 70.73 65.78 70.79 65.77 70.85 65.76 70.91 65.75 70.97 65.74 71.02 65.74 71.08 65.73 71.14 65.72 71.2 65.71 71.26 65.7 71.32 65.69 71.38 65.68 71.44 65.67 71.5 65.66 71.56 65.66 71.62 65.65 71.68 65.64 71.74 65.63 71.8 65.62 71.86 65.61 71.92 65.6 71.98 65.6 72.04 65.59 72.1 65.58 72.16 65.57 72.22 65.56 72.28 65.55 72.34 65.54 72.4 65.54 72.46 65.53 72.52 65.52 72.58 65.51 72.64 65.5 72.7 65.5 72.76 65.49 72.82 65.48 72.88 65.47 72.94 65.46 73 65.46 73.06 65.45 73.12 65.44 73.18 65.43 73.24 65.43 73.3 65.42 73.36 65.41 73.42 65.4 73.48 65.39 73.54 65.39 73.6 65.38 73.66 65.37 73.72 65.36 73.78 65.36 73.84 65.35 73.9 65.34 73.96 65.34 74.02 65.33 74.08 65.32 74.14 65.31 74.2 65.31 74.26 65.3 74.32 65.29 74.38 65.29 74.44 65.28 74.5 65.27 74.56 65.26 74.62 65.26 74.68 65.25 74.74 65.24 74.8 65.24 74.86 65.23 74.92 65.22 74.98 65.22 75.04 65.21 75.1 65.2 75.16 65.2 75.22 65.19 75.28 65.18 75.34 65.18 75.4 65.17 75.46 65.16 75.52 65.16 75.58 65.15 75.64 65.14 75.7 65.14 75.76 65.13 75.82 65.13 75.88 65.12 75.94 65.11 76 65.11 76.06 65.1 76.11 65.09 76.17 65.09 76.23 65.08 76.29 65.08 76.35 65.07 76.41 65.06 76.47 65.06 76.53 65.05 76.59 65.05 76.65 65.04 76.71 65.03 76.77 65.03 76.83 65.02 76.89 65.02 76.95 65.01 77.01 65 77.07 65 77.13 64.99 77.19 64.99 77.25 64.98 77.31 64.98 77.37 64.97 77.43 64.97 77.49 64.96 77.55 64.95 77.61 64.95 77.67 64.94 77.73 64.94 77.79 64.93 77.85 64.93 77.91 64.92 77.97 64.92 78.03 64.91 78.09 64.91 78.15 64.9 78.21 64.9 78.27 64.89 78.33 64.89 78.39 64.88 78.45 64.87 78.51 64.87 78.57 64.86 78.63 64.86 78.69 64.85 78.75 64.85 78.81 64.84 78.87 64.84 78.93 64.83 78.99 64.83 79.05 64.82 79.11 64.82 79.17 64.82 79.23 64.81 79.29 64.81 79.35 64.8 79.41 64.8 79.47 64.79 79.53 64.79 79.59 64.78 79.65 64.78 79.71 64.77 79.77 64.77 79.83 64.76 79.89 64.76 79.95 64.75 80.01 64.75 80.07 64.75 80.13 64.74 80.19 64.74 80.25 64.73 80.31 64.73 80.37 64.72 80.43 64.72 80.49 64.71 80.55 64.71 80.61 64.71 80.67 64.7 80.73 64.7 80.79 64.69 80.85 64.69 80.91 64.68 80.97 64.68 81.03 64.68 81.09 64.67 81.15 64.67 81.21 64.66 81.26 64.66 81.32 64.66 81.38 64.65 81.44 64.65 81.5 64.64 81.56 64.64 81.62 64.64 81.68 64.63 81.74 64.63 81.8 64.62 81.86 64.62 81.92 64.62 81.98 64.61 82.04 64.61 82.1 64.6 82.16 64.6 82.22 64.6 82.28 64.59 82.34 64.59 82.4 64.59 82.46 64.58 82.52 64.58 82.58 64.57 82.64 64.57 82.7 64.57 82.76 64.56 82.82 64.56 82.88 64.56 82.94 64.55 83 64.55 83.06 64.55 83.12 64.54 83.18 64.54 83.24 64.54 83.3 64.53 83.36 64.53 83.42 64.52 83.48 64.52 83.54 64.52 83.6 64.51 83.66 64.51 83.72 64.51 83.78 64.5 83.84 64.5 83.9 64.5 83.96 64.49 84.02 64.49 84.08 64.49 84.14 64.48 84.2 64.48 84.26 64.48 84.32 64.48 84.38 64.47 84.44 64.47 84.5 64.47 84.56 64.46 84.62 64.46 84.68 64.46 84.74 64.45 84.8 64.45 84.86 64.45 84.92 64.44 84.98 64.44 85.04 64.44 85.1 64.44 85.16 64.43 85.22 64.43 85.28 64.43 85.34 64.42 85.4 64.42 85.46 64.42 85.52 64.41 85.58 64.41 85.64 64.41 85.7 64.41 85.76 64.4 85.82 64.4 85.88 64.4 85.94 64.39 86 64.39 86.06 64.39 86.12 64.39 86.18 64.38 86.24 64.38 86.3 64.38 86.36 64.38 86.41 64.37 86.47 64.37 86.53 64.37 86.59 64.36 86.65 64.36 86.71 64.36 86.77 64.36 86.83 64.35 86.89 64.35 86.95 64.35 87.01 64.35 87.07 64.34 87.13 64.34 87.19 64.34 87.25 64.34 87.31 64.33 87.37 64.33 87.43 64.33 87.49 64.33 87.55 64.32 87.61 64.32 87.67 64.32 87.73 64.32 87.79 64.31 87.85 64.31 87.91 64.31 87.97 64.31 88.03 64.31 88.09 64.3 88.15 64.3 88.21 64.3 88.27 64.3 88.33 64.29 88.39 64.29 88.45 64.29 88.51 64.29 88.57 64.28 88.63 64.28 88.69 64.28 88.75 64.28 88.81 64.28 88.87 64.27 88.93 64.27 88.99 64.27 89.05 64.27 89.11 64.26 89.17 64.26 89.23 64.26 89.29 64.26 89.35 64.26 89.41 64.25 89.47 64.25 89.53 64.25 89.59 64.25 89.65 64.25 89.71 64.24 89.77 64.24 89.83 64.24 89.89 64.24 89.95 64.24 90.01 64.23 90.07 64.23 90.13 64.23 90.19 64.23 90.25 64.23 90.31 64.22 90.37 64.22 90.43 64.22 90.49 64.22 90.55 64.22 90.61 64.21 90.67 64.21 90.73 64.21 90.79 64.21 90.85 64.21 90.91 64.21 90.97 64.2 91.03 64.2 91.09 64.2 91.15 64.2 91.21 64.2 91.27 64.19 91.33 64.19 91.39 64.19 91.45 64.19 91.5 64.19 91.56 64.19 91.62 64.18 91.68 64.18 91.74 64.18 91.8 64.18 91.86 64.18 91.92 64.18 91.98 64.17 92.04 64.17 92.1 64.17 92.16 64.17 92.22 64.17 92.28 64.17 92.34 64.16 92.4 64.16 92.46 64.16 92.52 64.16 92.58 64.16 92.64 64.16 92.7 64.15 92.76 64.15 92.82 64.15 92.88 64.15 92.94 64.15 93 64.15 93.06 64.14 93.12 64.14 93.18 64.14 93.24 64.14 93.3 64.14 93.36 64.14 93.42 64.14 93.48 64.13 93.54 64.13 93.6 64.13 93.66 64.13 93.72 64.13 93.78 64.13 93.84 64.13 93.9 64.12 93.96 64.12 94.02 64.12 94.08 64.12 94.14 64.12 94.2 64.12 94.26 64.12 94.32 64.11 94.38 64.11 94.44 64.11 94.5 64.11 94.56 64.11 94.62 64.11 94.68 64.11 94.74 64.1 94.8 64.1 94.86 64.1 94.92 64.1 94.98 64.1 95.04 64.1 95.1 64.1 95.16 64.1 95.22 64.09 95.28 64.09 95.34 64.09 95.4 64.09 95.46 64.09 95.52 64.09 95.58 64.09 95.64 64.09 95.7 64.08 95.76 64.08 95.82 64.08 95.88 64.08 95.94 64.08 96 64.08 96.06 64.08 96.12 64.08 96.18 64.07 96.24 64.07 96.3 64.07 96.36 64.07 96.42 64.07 96.48 64.07 96.54 64.07 96.6 64.07 96.65 64.07 96.71 64.06 96.77 64.06 96.83 64.06 96.89 64.06 96.95 64.06 97.01 64.06 97.07 64.06 97.13 64.06 97.19 64.06 97.25 64.05 97.31 64.05 97.37 64.05 97.43 64.05 97.49 64.05 97.55 64.05 97.61 64.05 97.67 64.05 97.73 64.05 97.79 64.05 97.85 64.04 97.91 64.04 97.97 64.04 98.03 64.04 98.09 64.04 98.15 64.04 98.21 64.04 98.27 64.04 98.33 64.04 98.39 64.04 98.45 64.03 98.51 64.03 98.57 64.03 98.63 64.03 98.69 64.03 98.75 64.03 98.81 64.03 98.87 64.03 98.93 64.03 98.99 64.03 99.05 64.02 99.11 64.02 99.17 64.02 99.23 64.02 99.29 64.02 99.35 64.02 99.41 64.02 99.47 64.02 99.53 64.02 99.59 64.02 99.65 64.02 99.71 64.02 99.77 64.01 99.83 64.01 99.89 64.01 99.95 64.01 100.01 64.01 100.07 64.01 100.13 64.01 100.19 64.01 100.25 64.01 100.31 64.01 100.37 64.01 100.43 64.01 100.49 64 100.55 64 100.61 64 100.67 64 100.73 64 100.79 64 100.85 64 100.91 64 100.97 64 101.03 64 101.09 64 101.15 64 101.21 63.99 101.27 63.99 101.33 63.99 101.39 63.99 101.45 63.99 101.51 63.99 101.57 63.99 101.63 63.99 101.69 63.99 101.75 63.99 101.8 63.99 101.86 63.99 101.92 63.99 101.98 63.99 102.04 63.98 102.1 63.98 102.16 63.98 102.22 63.98 102.28 63.98 102.34 63.98 102.4 63.98 102.46 63.98 102.52 63.98 102.58 63.98 102.64 63.98 102.7 63.98 102.76 63.98 102.82 63.98 102.88 63.98 102.94 63.97 103 63.97 103.06 63.97 103.12 63.97 103.18 63.97 103.24 63.97 103.3 63.97 103.36 63.97 103.42 63.97 103.48 63.97 103.54 63.97 103.6 63.97 103.66 63.97 103.72 63.97 103.78 63.97 103.84 63.97 103.9 63.96 103.96 63.96 104.02 63.96 104.08 63.96 104.14 63.96 104.2 63.96 104.26 63.96 104.32 63.96 104.38 63.96 104.44 63.96 104.5 63.96 104.56 63.96 104.62 63.96 104.68 63.96 104.74 63.96 104.8 63.96 104.86 63.96 104.92 63.95 104.98 63.95 105.04 63.95 105.1 63.95 105.16 63.95 105.22 63.95 105.28 63.95 105.34 63.95 105.4 63.95 105.46 63.95 105.52 63.95 105.58 63.95 105.64 63.95 105.7 63.95 105.76 63.95 105.82 63.95 105.88 63.95 105.94 63.95 106 63.95 106.06 63.94 106.12 63.94 106.18 63.94 106.24 63.94 106.3 63.94 106.36 63.94 106.42 63.94 106.48 63.94 106.54 63.94 106.6 63.94 106.66 63.94 106.72 63.94 106.78 63.94 106.84 63.94 106.9 63.94 106.95 63.94 107.01 63.94 107.07 63.94 107.13 63.94 107.19 63.94 107.25 63.94 107.31 63.94 107.37 63.93 107.43 63.93 107.49 63.93 107.55 63.93 107.61 63.93 107.67 63.93 107.73 63.93 107.79 63.93 107.85 63.93 107.91 63.93 107.97 63.93 108.03 63.93 108.09 63.93 108.15 63.93 108.21 63.93 108.27 63.93 108.33 63.93 108.39 63.93 108.45 63.93 108.51 63.93 108.57 63.93 108.63 63.93 108.69 63.93 108.75 63.93 108.81 63.92 108.87 63.92 108.93 63.92 108.99 63.92 109.05 63.92 109.11 63.92 109.17 63.92 109.23 63.92 109.29 63.92 109.35 63.92 109.41 63.92 109.47 63.92 109.53 63.92 109.59 63.92 109.65 63.92 109.71 63.92 109.77 63.92 109.83 63.92 109.89 63.92 109.95 63.92 110.01 63.92 110.07 63.92 110.13 63.92 110.19 63.92 110.25 63.92 110.31 63.92 110.37 63.92 110.43 63.92 110.49 63.91 110.55 63.91 110.61 63.91 110.67 63.91 110.73 63.91 110.79 63.91 110.85 63.91 110.91 63.91 110.97 63.91 111.03 63.91 111.09 63.91 111.15 63.91 111.21 63.91 111.27 63.91 111.33 63.91 111.39 63.91 111.45 63.91 111.51 63.91 111.57 63.91 111.63 63.91 111.69 63.91 111.75 63.91 111.81 63.91 111.87 63.91 111.93 63.91 111.99 63.91 112.04 63.91 112.1 63.91 112.16 63.91 112.22 63.91 112.28 63.91 112.34 63.91 112.4 63.91 112.46 63.91 112.52 63.9 112.58 63.9 112.64 63.9 112.7 63.9 112.76 63.9 112.82 63.9 112.88 63.9 112.94 63.9 113 63.9 113.06 63.9 113.12 63.9 113.18 63.9 113.24 63.9 113.3 63.9 113.36 63.9 113.42 63.9 113.48 63.9 113.54 63.9 113.6 63.9 113.66 63.9 113.72 63.9 113.78 63.9 113.84 63.9 113.9 63.9 113.96 63.9 114.02 63.9 114.08 63.9 114.14 63.9 114.2 63.9 114.26 63.9 114.32 63.9 114.38 63.9 114.44 63.9 114.5 63.9 114.56 63.9 114.62 63.9 114.68 63.9 114.74 63.9 114.8 63.9 114.86 63.9 114.92 63.9 114.98 63.89 115.04 63.89 115.1 63.89 115.16 63.89 115.22 63.89 115.28 63.89 115.34 63.89 115.4 63.89 115.46 63.89 115.52 63.89 115.58 63.89 115.64 63.89 115.7 63.89 115.76 63.89 115.82 63.89 115.88 63.89 115.94 63.89 116 63.89 116.06 63.89 116.12 63.89 116.18 63.89 116.24 63.89 116.3 63.89 116.36 63.89 116.42 63.89 116.48 63.89 116.54 63.89 116.6 63.89 116.66 63.89 116.72 63.89 116.78 63.89 116.84 63.89 116.9 63.89 116.96 63.89 117.02 63.89 117.08 63.89 117.14 63.89 117.19 63.89 117.25 63.89 117.31 63.89 117.37 63.89 117.43 63.89 117.49 63.89 117.55 63.89 117.61 63.89 117.67 63.89 117.73 63.89 117.79 63.89 117.85 63.89 117.91 63.89 117.97 63.89 118.03 63.89 118.09 63.89 118.15 63.89 118.21 63.88 118.27 63.88 118.33 63.88 118.39 63.88 118.45 63.88 118.51 63.88 118.57 63.88 118.63 63.88 118.69 63.88 118.75 63.88 118.81 63.88 118.87 63.88 118.93 63.88 118.99 63.88 119.05 63.88 119.11 63.88 119.17 63.88 119.23 63.88 119.29 63.88 119.35 63.88 119.41 63.88 119.47 63.88 119.53 63.88 119.59 63.88 119.65 63.88 119.71 63.88 119.77 63.88 119.83 63.88 119.89 63.88 119.95 63.88 120.01 63.88 120.07 63.88 120.13 63.88 120.19 63.88 120.25 63.88 120.31 63.88 120.37 63.88 120.43 63.88 120.49 63.88 120.55 63.88 120.61 63.88 120.67 63.88 120.73 63.88 120.79 63.88 120.85 63.88 120.91 63.88 120.97 63.88 121.03 63.88 121.09 63.88 121.15 63.88 121.21 63.88 121.27 63.88 121.33 63.88 121.39 63.88 121.45 63.88 121.51 63.88 121.57 63.88 121.63 63.88 121.69 63.88 121.75 63.88 121.81 63.88 121.87 63.88 121.93 63.88 121.99 63.88 122.05 63.88 122.11 63.88 122.17 63.88 122.23 63.88 122.29 63.88 122.34 63.88 122.4 63.88 122.46 63.88 122.52 63.88 122.58 63.88 122.64 63.88 122.7 63.88 122.76 63.88 122.82 63.88 122.88 63.88 122.94 63.88 123 63.88 123.06 63.88 123.12 63.87 123.18 63.87 123.24 63.87 123.3 63.87 123.36 63.87 123.42 63.87 123.48 63.87 123.54 63.87 123.6 63.87 123.66 63.87 123.72 63.87 123.78 63.87 123.84 63.87 123.9 63.87 123.96 63.87 124.02 63.87 124.08 63.87 124.14 63.87 124.2 63.87 124.26 63.87 124.32 63.87 124.38 63.87 124.44 63.87 124.5 63.87 124.56 63.87 124.62 63.87 124.68 63.87 124.74 63.87 124.8 63.87 124.86 63.87 124.92 63.87 124.98 63.87 125.04 63.87 125.1 63.87 125.16 63.87 125.22 63.87 125.28 63.87 125.34 63.87 125.4 63.87 125.46 63.87 125.52 63.87 125.58 63.87 125.64 63.87 125.7 63.87 125.76 63.87 125.82 63.87 125.88 63.87 125.94 63.87 126 63.87 126.06 63.87 126.12 63.87 126.18 63.87 126.24 63.87 126.3 63.87 126.36 63.87 126.42 63.87 126.48 63.87 126.54 63.87 126.6 63.87 126.66 63.87 126.72 63.87 126.78 63.87 126.84 63.87 126.9 63.87 126.96 63.87 127.02 63.87 127.08 63.87 127.14 63.87 127.2 63.87 127.26 63.87 127.32 63.87 127.38 63.87 127.43 63.87 127.49 63.87 127.55 63.87 127.61 63.87 127.67 63.87 127.73 63.87 127.79 63.87 127.85 63.87 127.91 63.87 127.97 63.87 128.03 63.87 128.09 63.87 128.15 63.87 128.21 63.87 128.27 63.87 128.33 63.87 128.39 63.87 128.45 63.87 128.51 63.87 128.57 63.87 128.63 63.87 128.69 63.87 128.75 63.87 128.81 63.87 128.87 63.87 128.93 63.87 128.99 63.87 129.05 63.87 129.11 63.87 129.17 63.87 129.23 63.87 129.29 63.87 129.35 63.87 129.41 63.87 129.47 63.87 129.53 63.87 129.59 63.87 129.65 63.87 129.71 63.87 129.77 63.87 129.83 63.87 129.89 63.87 129.95 63.87 130.01 63.87 130.07 63.87 130.13 63.87 130.19 63.87 130.25 63.87 130.31 63.87 130.37 63.87 130.43 63.87 130.49 63.87 130.55 63.87 130.61 63.87 130.67 63.87 130.73 63.87 130.79 63.87 130.85 63.87 130.91 63.87 130.97 63.87 131.03 63.87 131.09 63.87 131.15 63.87 131.21 63.87 131.27 63.87 131.33 63.87 131.39 63.87 131.45 63.87 131.51 63.87 131.57 63.87 131.63 63.87 131.69 63.87 131.75 63.87 131.81 63.87 131.87 63.87 131.93 63.87 131.99 63.87 132.05 63.87 132.11 63.87 132.17 63.87 132.23 63.87 132.29 63.87 132.35 63.87 132.41 63.87 132.47 63.87 132.53 63.87 132.58 63.87 132.64 63.87 132.7 63.87 132.76 63.87 132.82 63.87 132.88 63.87 132.94 63.87 133 63.87 133.06 63.87 133.12 63.87 133.18 63.87 133.24 63.87 133.3 63.87 133.36 63.87 133.42 63.87 133.48 63.87 133.54 63.87 133.6 63.87 133.66 63.87 133.72 63.87 133.78 63.87 133.84 63.87 133.9 63.87 133.96 63.87 134.02 63.87 134.08 63.87 134.14 63.87 134.2 63.87 134.26 63.87 134.32 63.87 134.38 63.87 134.44 63.87 134.5 63.87 134.56 63.87 134.62 63.87 134.68 63.87 134.74 63.87 134.8 63.87 134.86 63.87 134.92 63.87 134.98 63.87 135.04 63.87 135.1 63.87 135.16 63.87 135.22 63.87 135.28 63.87 135.34 63.87 135.4 63.87 135.46 63.87 135.52 63.87 135.58 63.87 135.64 63.87 135.7 63.87 135.76 63.87 135.82 63.87 135.88 63.87 135.94 63.86 136 63.86 136.06 63.86 136.12 63.86 136.18 63.86 136.24 63.86 136.3 63.86 136.36 63.86 136.42 63.86 136.48 63.86 136.54 63.86 136.6 63.86 136.66 63.86 136.72 63.86 136.78 63.86 136.84 63.86 136.9 63.86 136.96 63.86 137.02 63.86 137.08 63.86 137.14 63.86 137.2 63.86 137.26 63.86 137.32 63.86 137.38 63.86 137.44 63.86 137.5 63.86 137.56 63.86 137.62 63.86 137.68 63.86 137.73 63.86 137.79 63.86 137.85 63.86 137.91 63.86 137.97 63.86 138.03 63.86 138.09 63.86 138.15 63.86 138.21 63.86 138.27 63.86 138.33 63.86 138.39 63.86 138.45 63.86 138.51 63.86 138.57 63.86 138.63 63.86 138.69 63.86 138.75 63.86 138.81 63.86 138.87 63.86 138.93 63.86 138.99 63.86 139.05 63.86 139.11 63.86 139.17 63.86 139.23 63.86 139.29 63.86 139.35 63.86 139.41 63.86 139.47 63.86 139.53 63.86 139.59 63.86 139.65 63.86 139.71 63.86 139.77 63.86 139.83 63.86 139.89 63.86 139.95 63.86 140.01 63.86 140.07 63.86 140.13 63.86 140.19 63.86 140.25 63.86 140.31 63.86 140.37 63.86 140.43 63.86 140.49 63.86 140.55 63.86 140.61 63.86 140.67 63.86 140.73 63.86 140.79 63.86 140.85 63.86 140.91 63.86 140.97 63.86 141.03 63.86 141.09 63.86 141.15 63.86 141.21 63.86 141.27 63.86 141.33 63.86 141.39 63.86 141.45 63.86 141.51 63.86 141.57 63.86 141.63 63.86 141.69 63.86 141.75 63.86 141.81 63.86 141.87 63.86 141.93 63.86 141.99 63.86 142.05 63.86 142.11 63.86 142.17 63.86 142.23 63.86 142.29 63.86 142.35 63.86 142.41 63.86 142.47 63.86 142.53 63.86 142.59 63.86 142.65 63.86 142.71 63.86 142.77 63.86 142.83 63.86 142.88 63.86 142.94 63.86 143 63.86 143.06 63.86 143.12 63.86 143.18 63.86 143.24 63.86 143.3 63.86 143.36 63.86 143.42 63.86 143.48 63.86 143.54 63.86 143.6 63.86 143.66 63.86 143.72 63.86 143.78 63.86 143.84 63.86 143.9 63.86 143.96 63.86 144.02 63.86 144.08 63.86 144.14 63.86 144.2 63.86 144.26 63.86 144.32 63.86 144.38 63.86 144.44 63.86 144.5 63.86 144.56 63.86 144.62 63.86 144.68 63.86 144.74 63.86 144.8 63.86 144.86 63.86 144.92 63.86 144.98 63.86 145.04 63.86 145.1 63.86 145.16 63.86 145.22 63.86 145.28 63.86 145.34 63.86 145.4 63.86"/>
      </g>
    </g>
  </g>
</g>
  <g class="guide ylabels" font-size="2.82" font-family="'PT Sans Caption','Helvetica Neue','Helvetica',sans-serif" fill="#6C606B" id="img-8c90b94e-11">
    <text x="22.09" y="80.32" text-anchor="end" dy="0.35em">-0.025</text>
    <text x="22.09" y="63.89" text-anchor="end" dy="0.35em">0.000</text>
    <text x="22.09" y="47.46" text-anchor="end" dy="0.35em">0.025</text>
    <text x="22.09" y="31.04" text-anchor="end" dy="0.35em">0.050</text>
    <text x="22.09" y="14.61" text-anchor="end" dy="0.35em">0.075</text>
  </g>
  <g font-size="3.88" font-family="'PT Sans','Helvetica Neue','Helvetica',sans-serif" fill="#564A55" stroke="#000000" stroke-opacity="0.000" id="img-8c90b94e-12">
    <text x="8.81" y="45.46" text-anchor="middle" dy="0.35em" transform="rotate(-90, 8.81, 47.46)">Percentage points</text>
  </g>
  <g font-size="3.88" font-family="'PT Sans','Helvetica Neue','Helvetica',sans-serif" fill="#564A55" stroke="#000000" stroke-opacity="0.000" id="img-8c90b94e-13">
    <text x="85.25" y="10.61" text-anchor="middle">Interest Rate to Aggregate Productivity Shock</text>
  </g>
</g>
<defs>
  <clipPath id="img-8c90b94e-4">
  <path d="M23.09,12.61 L 147.4 12.61 147.4 82.32 23.09 82.32" />
</clipPath>
</defs>
</svg>
