<?xml version="1.0" encoding="UTF-8"?>
<svg xmlns="http://www.w3.org/2000/svg"
     xmlns:xlink="http://www.w3.org/1999/xlink"
     xmlns:gadfly="http://www.gadflyjl.org/ns"
     version="1.2"
     width="152.4mm" height="101.6mm" viewBox="0 0 152.4 101.6"
     stroke="none"
     fill="#000000"
     stroke-width="0.3"
     font-size="3.88"
>
<g class="plotroot xscalable yscalable" id="fig-3e669827745a425fb1634ab39acc8082-element-1">
  <g font-size="3.88" font-family="'PT Sans','Helvetica Neue','Helvetica',sans-serif" fill="#564A55" stroke="#000000" stroke-opacity="0.000" id="fig-3e669827745a425fb1634ab39acc8082-element-2">
    <text x="76.47" y="89.99" text-anchor="middle" dy="0.6em">s2</text>
  </g>
  <g class="guide xlabels" font-size="2.82" font-family="'PT Sans Caption','Helvetica Neue','Helvetica',sans-serif" fill="#6C606B" id="fig-3e669827745a425fb1634ab39acc8082-element-3">
    <text x="20.63" y="83.32" text-anchor="middle" dy="0.6em">0.00000</text>
    <text x="57.86" y="83.32" text-anchor="middle" dy="0.6em">0.00005</text>
    <text x="95.08" y="83.32" text-anchor="middle" dy="0.6em">0.00010</text>
    <text x="132.31" y="83.32" text-anchor="middle" dy="0.6em">0.00015</text>
  </g>
  <g class="guide colorkey" id="fig-3e669827745a425fb1634ab39acc8082-element-4">
    <g font-size="2.82" font-family="'PT Sans','Helvetica Neue','Helvetica',sans-serif" fill="#4C404B" id="fig-3e669827745a425fb1634ab39acc8082-element-5">
      <text x="138.62" y="64.92" dy="0.35em">-0.010</text>
      <text x="138.62" y="44.44" dy="0.35em">0.005</text>
      <text x="138.62" y="37.61" dy="0.35em">0.010</text>
      <text x="138.62" y="58.1" dy="0.35em">-0.005</text>
      <text x="138.62" y="51.27" dy="0.35em">0.000</text>
    </g>
    <g shape-rendering="crispEdges" stroke="#000000" stroke-opacity="0.000" id="fig-3e669827745a425fb1634ab39acc8082-element-6">
      <rect x="136.31" y="64.24" width="1.31" height="0.68" fill="#004D84"/>
      <rect x="136.31" y="63.56" width="1.31" height="0.68" fill="#005B8D"/>
      <rect x="136.31" y="62.88" width="1.31" height="0.68" fill="#006995"/>
      <rect x="136.31" y="62.19" width="1.31" height="0.68" fill="#00769D"/>
      <rect x="136.31" y="61.51" width="1.31" height="0.68" fill="#0083A3"/>
      <rect x="136.31" y="60.83" width="1.31" height="0.68" fill="#278FA9"/>
      <rect x="136.31" y="60.15" width="1.31" height="0.68" fill="#409BAF"/>
      <rect x="136.31" y="59.46" width="1.31" height="0.68" fill="#55A7B5"/>
      <rect x="136.31" y="58.78" width="1.31" height="0.68" fill="#69B2BA"/>
      <rect x="136.31" y="58.1" width="1.31" height="0.68" fill="#7BBCC0"/>
      <rect x="136.31" y="57.41" width="1.31" height="0.68" fill="#8DC6C5"/>
      <rect x="136.31" y="56.73" width="1.31" height="0.68" fill="#9ED0CB"/>
      <rect x="136.31" y="56.05" width="1.31" height="0.68" fill="#A5CFC7"/>
      <rect x="136.31" y="55.37" width="1.31" height="0.68" fill="#ABCEC4"/>
      <rect x="136.31" y="54.68" width="1.31" height="0.68" fill="#B1CCC2"/>
      <rect x="136.31" y="54" width="1.31" height="0.68" fill="#B5CCC1"/>
      <rect x="136.31" y="53.32" width="1.31" height="0.68" fill="#B7CBBF"/>
      <rect x="136.31" y="52.63" width="1.31" height="0.68" fill="#B9CBBD"/>
      <rect x="136.31" y="51.95" width="1.31" height="0.68" fill="#BBCBBB"/>
      <rect x="136.31" y="51.27" width="1.31" height="0.68" fill="#BDCABA"/>
      <rect x="136.31" y="50.59" width="1.31" height="0.68" fill="#BFCAB8"/>
      <rect x="136.31" y="49.9" width="1.31" height="0.68" fill="#C2C9B7"/>
      <rect x="136.31" y="49.22" width="1.31" height="0.68" fill="#C4C9B6"/>
      <rect x="136.31" y="48.54" width="1.31" height="0.68" fill="#C6C8B5"/>
      <rect x="136.31" y="47.86" width="1.31" height="0.68" fill="#C9C7B4"/>
      <rect x="136.31" y="47.17" width="1.31" height="0.68" fill="#CCC7B2"/>
      <rect x="136.31" y="46.49" width="1.31" height="0.68" fill="#CFC6AE"/>
      <rect x="136.31" y="45.81" width="1.31" height="0.68" fill="#D4C5AA"/>
      <rect x="136.31" y="45.12" width="1.31" height="0.68" fill="#D8C3A6"/>
      <rect x="136.31" y="44.44" width="1.31" height="0.68" fill="#D3B79A"/>
      <rect x="136.31" y="43.76" width="1.31" height="0.68" fill="#CDAB8E"/>
      <rect x="136.31" y="43.08" width="1.31" height="0.68" fill="#C89E82"/>
      <rect x="136.31" y="42.39" width="1.31" height="0.68" fill="#C19177"/>
      <rect x="136.31" y="41.71" width="1.31" height="0.68" fill="#BA836C"/>
      <rect x="136.31" y="41.03" width="1.31" height="0.68" fill="#B27563"/>
      <rect x="136.31" y="40.34" width="1.31" height="0.68" fill="#AA665A"/>
      <rect x="136.31" y="39.66" width="1.31" height="0.68" fill="#A05752"/>
      <rect x="136.31" y="38.98" width="1.31" height="0.68" fill="#96484A"/>
      <rect x="136.31" y="38.3" width="1.31" height="0.68" fill="#8B3844"/>
      <rect x="136.31" y="37.61" width="1.31" height="0.68" fill="#7E273E"/>
      <g stroke="#FFFFFF" stroke-width="0.2" id="fig-3e669827745a425fb1634ab39acc8082-element-7">
        <path fill="none" d="M136.31,64.92 L 137.62 64.92"/>
        <path fill="none" d="M136.31,44.44 L 137.62 44.44"/>
        <path fill="none" d="M136.31,37.61 L 137.62 37.61"/>
        <path fill="none" d="M136.31,58.1 L 137.62 58.1"/>
        <path fill="none" d="M136.31,51.27 L 137.62 51.27"/>
      </g>
    </g>
    <g fill="#362A35" font-size="3.88" font-family="'PT Sans','Helvetica Neue','Helvetica',sans-serif" stroke="#000000" stroke-opacity="0.000" id="fig-3e669827745a425fb1634ab39acc8082-element-8">
      <text x="136.31" y="33.61">m</text>
    </g>
  </g>
  <g clip-path="url(#fig-3e669827745a425fb1634ab39acc8082-element-10)" id="fig-3e669827745a425fb1634ab39acc8082-element-9">
    <g pointer-events="visible" opacity="1" fill="#000000" fill-opacity="0.000" stroke="#000000" stroke-opacity="0.000" class="guide background" id="fig-3e669827745a425fb1634ab39acc8082-element-11">
      <rect x="18.63" y="5" width="115.67" height="77.32"/>
    </g>
    <g class="guide ygridlines xfixed" stroke-dasharray="0.5,0.5" stroke-width="0.2" stroke="#D0D0E0" id="fig-3e669827745a425fb1634ab39acc8082-element-12">
      <path fill="none" d="M18.63,80.32 L 134.31 80.32"/>
      <path fill="none" d="M18.63,61.99 L 134.31 61.99"/>
      <path fill="none" d="M18.63,43.66 L 134.31 43.66"/>
      <path fill="none" d="M18.63,25.33 L 134.31 25.33"/>
      <path fill="none" d="M18.63,7 L 134.31 7"/>
    </g>
    <g class="guide xgridlines yfixed" stroke-dasharray="0.5,0.5" stroke-width="0.2" stroke="#D0D0E0" id="fig-3e669827745a425fb1634ab39acc8082-element-13">
      <path fill="none" d="M20.63,5 L 20.63 82.32"/>
      <path fill="none" d="M57.86,5 L 57.86 82.32"/>
      <path fill="none" d="M95.08,5 L 95.08 82.32"/>
      <path fill="none" d="M132.31,5 L 132.31 82.32"/>
    </g>
    <g class="plotpanel" id="fig-3e669827745a425fb1634ab39acc8082-element-14">
      <g stroke-width="0.3" fill="#000000" fill-opacity="0.000" id="fig-3e669827745a425fb1634ab39acc8082-element-15">
        <path fill="none" d="M20.67,56.72 L 21.45 57.14 22.23 57.55 23.01 57.96 23.79 58.37 24.57 58.76 25.35 59.15 26.13 59.53 26.9 59.9 27.68 60.26 28.46 60.61 29.24 60.96 30.02 61.3 30.8 61.63 31.58 61.96 32.36 62.27 33.14 62.59 33.92 62.89 34.7 63.19 35.48 63.49 36.26 63.78 37.04 64.06 37.81 64.34 38.59 64.61 39.37 64.88 40.15 65.14 40.93 65.4 41.71 65.65 42.49 65.9 43.27 66.14 44.05 66.38 44.83 66.62 45.61 66.85 46.39 67.07 47.17 67.29 47.95 67.51 48.73 67.72 49.5 67.93 50.28 68.14 51.06 68.34 51.84 68.54 52.62 68.73 53.4 68.92 54.18 69.11 54.96 69.29 55.74 69.47 56.52 69.64 57.3 69.81 58.08 69.98 58.86 70.14 59.64 70.31 60.41 70.46 61.19 70.62 61.97 70.77 62.75 70.91 63.53 71.06 64.31 71.2 65.09 71.34 65.87 71.47 66.65 71.6 67.43 71.73 68.21 71.85 68.99 71.97 69.77 72.09 70.55 72.2 71.33 72.31 72.1 72.42 72.88 72.52 73.66 72.62 74.44 72.72 75.22 72.82 76 72.91 76.78 73 77.56 73.08 78.34 73.16 79.12 73.24 79.9 73.31 80.68 73.39 81.46 73.45 82.24 73.52 83.01 73.58 83.79 73.64 84.57 73.69 85.35 73.75 86.13 73.8 86.91 73.84 87.69 73.88 88.47 73.92 89.25 73.96 90.03 73.99 90.81 74.02 91.59 74.04 92.37 74.07 93.15 74.09 93.92 74.1 94.7 74.12 95.48 74.13 96.26 74.13 97.04 74.14 97.82 74.14" stroke="#6CB4BB" class="geometry color_"/>
        <path fill="none" d="M20.67,22.48 L 21.45 22.92 22.23 23.36 23.01 23.79 23.79 24.21 24.57 24.62 25.35 25.03 26.13 25.43 26.9 25.82 27.68 26.2 28.46 26.57 29.24 26.94 30.02 27.3 30.8 27.65 31.58 28 32.36 28.34 33.14 28.67 33.92 28.99 34.7 29.32 35.48 29.63 36.26 29.94 37.04 30.24 37.81 30.54 38.59 30.83 39.37 31.12 40.15 31.4 40.93 31.68 41.71 31.96 42.49 32.22 43.27 32.49 44.05 32.75 44.83 33 45.61 33.25 46.39 33.5 47.17 33.74 47.95 33.98 48.73 34.22 49.5 34.45 50.28 34.67 51.06 34.89 51.84 35.11 52.62 35.33 53.4 35.54 54.18 35.75 54.96 35.95 55.74 36.15 56.52 36.35 57.3 36.54 58.08 36.73 58.86 36.92 59.64 37.1 60.41 37.28 61.19 37.45 61.97 37.63 62.75 37.79 63.53 37.96 64.31 38.12 65.09 38.28 65.87 38.44 66.65 38.59 67.43 38.74 68.21 38.88 68.99 39.03 69.77 39.17 70.55 39.3 71.33 39.44 72.1 39.57 72.88 39.69 73.66 39.81 74.44 39.93 75.22 40.05 76 40.16 76.78 40.27 77.56 40.38 78.34 40.48 79.12 40.58 79.9 40.68 80.68 40.77 81.46 40.86 82.24 40.95 83.01 41.03 83.79 41.11 84.57 41.19 85.35 41.26 86.13 41.33 86.91 41.39 87.69 41.46 88.47 41.51 89.25 41.57 90.03 41.62 90.81 41.66 91.59 41.71 92.37 41.74 93.15 41.78 93.92 41.81 94.7 41.83 95.48 41.85 96.26 41.87 97.04 41.88 97.82 41.89" stroke="#9A4D4D" class="geometry color_"/>
        <path fill="none" d="M20.67,39.51 L 21.45 39.94 22.23 40.38 23.01 40.8 23.79 41.22 24.57 41.63 25.35 42.03 26.13 42.42 26.9 42.8 27.68 43.18 28.46 43.54 29.24 43.9 30.02 44.25 30.8 44.6 31.58 44.94 32.36 45.27 33.14 45.6 33.92 45.91 34.7 46.23 35.48 46.53 36.26 46.84 37.04 47.13 37.81 47.42 38.59 47.71 39.37 47.99 40.15 48.26 40.93 48.53 41.71 48.8 42.49 49.06 43.27 49.32 44.05 49.57 44.83 49.82 45.61 50.06 46.39 50.3 47.17 50.53 47.95 50.77 48.73 50.99 49.5 51.21 50.28 51.43 51.06 51.65 51.84 51.86 52.62 52.07 53.4 52.27 54.18 52.47 54.96 52.67 55.74 52.86 56.52 53.05 57.3 53.23 58.08 53.42 58.86 53.59 59.64 53.77 60.41 53.94 61.19 54.11 61.97 54.28 62.75 54.44 63.53 54.59 64.31 54.75 65.09 54.9 65.87 55.05 66.65 55.19 67.43 55.34 68.21 55.48 68.99 55.61 69.77 55.74 70.55 55.87 71.33 56 72.1 56.12 72.88 56.24 73.66 56.35 74.44 56.47 75.22 56.58 76 56.68 76.78 56.78 77.56 56.88 78.34 56.98 79.12 57.07 79.9 57.16 80.68 57.25 81.46 57.33 82.24 57.41 83.01 57.49 83.79 57.56 84.57 57.63 85.35 57.69 86.13 57.76 86.91 57.81 87.69 57.87 88.47 57.92 89.25 57.97 90.03 58.01 90.81 58.05 91.59 58.09 92.37 58.12 93.15 58.15 93.92 58.18 94.7 58.2 95.48 58.21 96.26 58.23 97.04 58.24 97.82 58.24" stroke="#C5C8B6" class="geometry color_"/>
      </g>
    </g>
  </g>
  <g class="guide ylabels" font-size="2.82" font-family="'PT Sans Caption','Helvetica Neue','Helvetica',sans-serif" fill="#6C606B" id="fig-3e669827745a425fb1634ab39acc8082-element-16">
    <text x="17.63" y="80.32" text-anchor="end" dy="0.35em">7.0</text>
    <text x="17.63" y="61.99" text-anchor="end" dy="0.35em">7.1</text>
    <text x="17.63" y="43.66" text-anchor="end" dy="0.35em">7.2</text>
    <text x="17.63" y="25.33" text-anchor="end" dy="0.35em">7.3</text>
    <text x="17.63" y="7" text-anchor="end" dy="0.35em">7.4</text>
  </g>
  <g font-size="3.88" font-family="'PT Sans','Helvetica Neue','Helvetica',sans-serif" fill="#564A55" stroke="#000000" stroke-opacity="0.000" id="fig-3e669827745a425fb1634ab39acc8082-element-17">
    <text x="8.81" y="41.66" text-anchor="middle" dy="0.35em" transform="rotate(-90, 8.81, 43.66)">pd</text>
  </g>
</g>
<defs>
<clipPath id="fig-3e669827745a425fb1634ab39acc8082-element-10">
  <path d="M18.63,5 L 134.31 5 134.31 82.32 18.63 82.32" />
</clipPath
></defs>
</svg>
