<?xml version="1.0" encoding="UTF-8"?>
<svg xmlns="http://www.w3.org/2000/svg"
     xmlns:xlink="http://www.w3.org/1999/xlink"
     xmlns:gadfly="http://www.gadflyjl.org/ns"
     version="1.2"
     width="152.4mm" height="101.6mm" viewBox="0 0 152.4 101.6"
     stroke="none"
     fill="#000000"
     stroke-width="0.3"
     font-size="3.88"
>
<g class="plotroot xscalable yscalable" id="img-3d3d48be-1">
  <g font-size="3.88" font-family="'PT Sans','Helvetica Neue','Helvetica',sans-serif" fill="#564A55" stroke="#000000" stroke-opacity="0.000" id="img-3d3d48be-2">
    <text x="75.44" y="89.99" text-anchor="middle" dy="0.6em">drift</text>
  </g>
  <g class="guide xlabels" font-size="2.82" font-family="'PT Sans Caption','Helvetica Neue','Helvetica',sans-serif" fill="#6C606B" id="img-3d3d48be-3">
    <text x="20.63" y="83.32" text-anchor="middle" dy="0.6em">-0.002</text>
    <text x="48.03" y="83.32" text-anchor="middle" dy="0.6em">0.000</text>
    <text x="75.44" y="83.32" text-anchor="middle" dy="0.6em">0.002</text>
    <text x="102.84" y="83.32" text-anchor="middle" dy="0.6em">0.004</text>
    <text x="130.24" y="83.32" text-anchor="middle" dy="0.6em">0.006</text>
  </g>
  <g class="guide colorkey" id="img-3d3d48be-4">
    <g font-size="2.82" font-family="'PT Sans','Helvetica Neue','Helvetica',sans-serif" fill="#4C404B" id="img-3d3d48be-5">
      <text x="136.55" y="62.96" dy="0.35em">0.00000</text>
      <text x="136.55" y="39.58" dy="0.35em">0.00015</text>
      <text x="136.55" y="47.37" dy="0.35em">0.00010</text>
      <text x="136.55" y="55.16" dy="0.35em">0.00005</text>
    </g>
    <g shape-rendering="crispEdges" stroke="#000000" stroke-opacity="0.000" id="img-3d3d48be-6">
      <rect x="134.24" y="62.37" width="1.31" height="0.58" fill="#004D84"/>
      <rect x="134.24" y="61.79" width="1.31" height="0.58" fill="#005B8D"/>
      <rect x="134.24" y="61.2" width="1.31" height="0.58" fill="#006995"/>
      <rect x="134.24" y="60.62" width="1.31" height="0.58" fill="#00769D"/>
      <rect x="134.24" y="60.03" width="1.31" height="0.58" fill="#0083A3"/>
      <rect x="134.24" y="59.45" width="1.31" height="0.58" fill="#278FA9"/>
      <rect x="134.24" y="58.86" width="1.31" height="0.58" fill="#409BAF"/>
      <rect x="134.24" y="58.28" width="1.31" height="0.58" fill="#55A7B5"/>
      <rect x="134.24" y="57.7" width="1.31" height="0.58" fill="#69B2BA"/>
      <rect x="134.24" y="57.11" width="1.31" height="0.58" fill="#7BBCC0"/>
      <rect x="134.24" y="56.53" width="1.31" height="0.58" fill="#8DC6C5"/>
      <rect x="134.24" y="55.94" width="1.31" height="0.58" fill="#9ED0CB"/>
      <rect x="134.24" y="55.36" width="1.31" height="0.58" fill="#A5CFC7"/>
      <rect x="134.24" y="54.77" width="1.31" height="0.58" fill="#ABCEC4"/>
      <rect x="134.24" y="54.19" width="1.31" height="0.58" fill="#B1CCC2"/>
      <rect x="134.24" y="53.61" width="1.31" height="0.58" fill="#B5CCC1"/>
      <rect x="134.24" y="53.02" width="1.31" height="0.58" fill="#B7CBBF"/>
      <rect x="134.24" y="52.44" width="1.31" height="0.58" fill="#B9CBBD"/>
      <rect x="134.24" y="51.85" width="1.31" height="0.58" fill="#BBCBBB"/>
      <rect x="134.24" y="51.27" width="1.31" height="0.58" fill="#BDCABA"/>
      <rect x="134.24" y="50.68" width="1.31" height="0.58" fill="#BFCAB8"/>
      <rect x="134.24" y="50.1" width="1.31" height="0.58" fill="#C2C9B7"/>
      <rect x="134.24" y="49.52" width="1.31" height="0.58" fill="#C4C9B6"/>
      <rect x="134.24" y="48.93" width="1.31" height="0.58" fill="#C6C8B5"/>
      <rect x="134.24" y="48.35" width="1.31" height="0.58" fill="#C9C7B4"/>
      <rect x="134.24" y="47.76" width="1.31" height="0.58" fill="#CCC7B2"/>
      <rect x="134.24" y="47.18" width="1.31" height="0.58" fill="#CFC6AE"/>
      <rect x="134.24" y="46.59" width="1.31" height="0.58" fill="#D4C5AA"/>
      <rect x="134.24" y="46.01" width="1.31" height="0.58" fill="#D8C3A6"/>
      <rect x="134.24" y="45.43" width="1.31" height="0.58" fill="#D3B79A"/>
      <rect x="134.24" y="44.84" width="1.31" height="0.58" fill="#CDAB8E"/>
      <rect x="134.24" y="44.26" width="1.31" height="0.58" fill="#C89E82"/>
      <rect x="134.24" y="43.67" width="1.31" height="0.58" fill="#C19177"/>
      <rect x="134.24" y="43.09" width="1.31" height="0.58" fill="#BA836C"/>
      <rect x="134.24" y="42.5" width="1.31" height="0.58" fill="#B27563"/>
      <rect x="134.24" y="41.92" width="1.31" height="0.58" fill="#AA665A"/>
      <rect x="134.24" y="41.34" width="1.31" height="0.58" fill="#A05752"/>
      <rect x="134.24" y="40.75" width="1.31" height="0.58" fill="#96484A"/>
      <rect x="134.24" y="40.17" width="1.31" height="0.58" fill="#8B3844"/>
      <rect x="134.24" y="39.58" width="1.31" height="0.58" fill="#7E273E"/>
      <g stroke="#FFFFFF" stroke-width="0.2" id="img-3d3d48be-7">
        <path fill="none" d="M134.24,62.96 L 135.55 62.96"/>
        <path fill="none" d="M134.24,39.58 L 135.55 39.58"/>
        <path fill="none" d="M134.24,47.37 L 135.55 47.37"/>
        <path fill="none" d="M134.24,55.16 L 135.55 55.16"/>
      </g>
    </g>
    <g fill="#362A35" font-size="3.88" font-family="'PT Sans','Helvetica Neue','Helvetica',sans-serif" stroke="#000000" stroke-opacity="0.000" id="img-3d3d48be-8">
      <text x="134.24" y="35.58">volatility</text>
    </g>
  </g>
<g clip-path="url(#img-3d3d48be-9)">
  <g id="img-3d3d48be-10">
    <g pointer-events="visible" opacity="1" fill="#000000" fill-opacity="0.000" stroke="#000000" stroke-opacity="0.000" class="guide background" id="img-3d3d48be-11">
      <rect x="18.63" y="5" width="113.61" height="77.32"/>
    </g>
    <g class="guide ygridlines xfixed" stroke-dasharray="0.5,0.5" stroke-width="0.2" stroke="#D0D0E0" id="img-3d3d48be-12">
      <path fill="none" d="M18.63,80.32 L 132.24 80.32"/>
      <path fill="none" d="M18.63,61.99 L 132.24 61.99"/>
      <path fill="none" d="M18.63,43.66 L 132.24 43.66"/>
      <path fill="none" d="M18.63,25.33 L 132.24 25.33"/>
      <path fill="none" d="M18.63,7 L 132.24 7"/>
    </g>
    <g class="guide xgridlines yfixed" stroke-dasharray="0.5,0.5" stroke-width="0.2" stroke="#D0D0E0" id="img-3d3d48be-13">
      <path fill="none" d="M20.63,5 L 20.63 82.32"/>
      <path fill="none" d="M48.03,5 L 48.03 82.32"/>
      <path fill="none" d="M75.44,5 L 75.44 82.32"/>
      <path fill="none" d="M102.84,5 L 102.84 82.32"/>
      <path fill="none" d="M130.24,5 L 130.24 82.32"/>
    </g>
    <g class="plotpanel" id="img-3d3d48be-14">
      <g stroke-width="0.3" fill="#000000" fill-opacity="0.000" stroke-dasharray="none" id="img-3d3d48be-15">
        <path fill="none" d="M31.31,37.52 L 34.86 36.89 38.41 36.27 41.96 35.65 45.51 35.02 49.06 34.4 52.61 33.78 56.16 33.16 59.71 32.54 63.26 31.92 66.81 31.31 70.36 30.7 73.91 30.1 77.46 29.5 81.01 28.91 84.56 28.31 88.11 27.72 91.66 27.13 95.21 26.53 98.76 25.94 102.31 25.35 105.86 24.76" class="geometry color_" stroke="#005D8E"/>
        <path fill="none" d="M31.31,62.79 L 34.86 62.45 38.41 62.08 41.96 61.68 45.51 61.27 49.06 60.83 52.61 60.38 56.16 59.92 59.71 59.45 63.26 58.97 66.81 58.48 70.36 57.99 73.91 57.5 77.46 57.01 81.01 56.51 84.56 56.02 88.11 55.53 91.66 55.05 95.21 54.57 98.76 54.11 102.31 53.67 105.86 53.26" class="geometry color_" stroke="#A86358"/>
        <path fill="none" d="M31.31,54.53 L 34.86 54.06 38.41 53.56 41.96 53.04 45.51 52.5 49.06 51.96 52.61 51.4 56.16 50.84 59.71 50.28 63.26 49.71 66.81 49.14 70.36 48.57 73.91 47.99 77.46 47.42 81.01 46.85 84.56 46.28 88.11 45.72 91.66 45.15 95.21 44.59 98.76 44.04 102.31 43.5 105.86 42.98" class="geometry color_" stroke="#B9CBBD"/>
      </g>
    </g>
  </g>
</g>
  <g class="guide ylabels" font-size="2.82" font-family="'PT Sans Caption','Helvetica Neue','Helvetica',sans-serif" fill="#6C606B" id="img-3d3d48be-16">
    <text x="17.63" y="80.32" text-anchor="end" dy="0.35em">6.9</text>
    <text x="17.63" y="61.99" text-anchor="end" dy="0.35em">7.0</text>
    <text x="17.63" y="43.66" text-anchor="end" dy="0.35em">7.1</text>
    <text x="17.63" y="25.33" text-anchor="end" dy="0.35em">7.2</text>
    <text x="17.63" y="7" text-anchor="end" dy="0.35em">7.3</text>
  </g>
  <g font-size="3.88" font-family="'PT Sans','Helvetica Neue','Helvetica',sans-serif" fill="#564A55" stroke="#000000" stroke-opacity="0.000" id="img-3d3d48be-17">
    <text x="8.81" y="41.66" text-anchor="middle" dy="0.35em" transform="rotate(-90, 8.81, 43.66)">wealthconsumption</text>
  </g>
</g>
<defs>
  <clipPath id="img-3d3d48be-9">
  <path d="M18.63,5 L 132.24 5 132.24 82.32 18.63 82.32" />
</clipPath>
</defs>
</svg>
