<?xml version="1.0" encoding="UTF-8"?>
<svg xmlns="http://www.w3.org/2000/svg"
     xmlns:xlink="http://www.w3.org/1999/xlink"
     xmlns:gadfly="http://www.gadflyjl.org/ns"
     version="1.2"
     width="152.4mm" height="101.6mm" viewBox="0 0 152.4 101.6"
     stroke="none"
     fill="#000000"
     stroke-width="0.3"
     font-size="3.88"
>
<g class="plotroot xscalable yscalable" id="img-08a892db-1">
  <g font-size="3.88" font-family="'PT Sans','Helvetica Neue','Helvetica',sans-serif" fill="#564A55" stroke="#000000" stroke-opacity="0.000" id="img-08a892db-2">
    <text x="84.07" y="89.99" text-anchor="middle" dy="0.6em">log-x</text>
  </g>
  <g class="guide xlabels" font-size="2.82" font-family="'PT Sans Caption','Helvetica Neue','Helvetica',sans-serif" fill="#6C606B" id="img-08a892db-3">
    <text x="22.75" y="83.32" text-anchor="middle" dy="0.6em">-5</text>
    <text x="63.63" y="83.32" text-anchor="middle" dy="0.6em">0</text>
    <text x="104.51" y="83.32" text-anchor="middle" dy="0.6em">5</text>
    <text x="145.4" y="83.32" text-anchor="middle" dy="0.6em">10</text>
  </g>
<g clip-path="url(#img-08a892db-4)">
  <g id="img-08a892db-5">
    <g pointer-events="visible" opacity="1" fill="#000000" fill-opacity="0.000" stroke="#000000" stroke-opacity="0.000" class="guide background" id="img-08a892db-6">
      <rect x="20.75" y="5" width="126.65" height="77.32"/>
    </g>
    <g class="guide ygridlines xfixed" stroke-dasharray="0.5,0.5" stroke-width="0.2" stroke="#D0D0E0" id="img-08a892db-7">
      <path fill="none" d="M20.75,80.32 L 147.4 80.32"/>
      <path fill="none" d="M20.75,55.88 L 147.4 55.88"/>
      <path fill="none" d="M20.75,31.44 L 147.4 31.44"/>
      <path fill="none" d="M20.75,7 L 147.4 7"/>
    </g>
    <g class="guide xgridlines yfixed" stroke-dasharray="0.5,0.5" stroke-width="0.2" stroke="#D0D0E0" id="img-08a892db-8">
      <path fill="none" d="M22.75,5 L 22.75 82.32"/>
      <path fill="none" d="M63.63,5 L 63.63 82.32"/>
      <path fill="none" d="M104.51,5 L 104.51 82.32"/>
      <path fill="none" d="M145.4,5 L 145.4 82.32"/>
    </g>
    <g class="plotpanel" id="img-08a892db-9">
      <g stroke-width="0.3" fill="#000000" fill-opacity="0.000" class="geometry" stroke-dasharray="none" stroke="#00BFFF" id="img-08a892db-10">
        <path fill="none" d="M25.97,7 L 26.92 7.46 27.88 8.14 28.83 8.82 29.78 9.5 30.73 10.18 31.68 10.86 32.63 11.53 33.58 12.21 34.53 12.89 35.48 13.57 36.43 14.25 37.38 14.92 38.34 15.6 39.29 16.28 40.24 16.96 41.19 17.64 42.14 18.31 43.09 18.99 44.04 19.67 44.99 20.35 45.94 21.03 46.89 21.7 47.84 22.38 48.8 23.06 49.75 23.74 50.7 24.42 51.65 25.09 52.6 25.77 53.55 26.45 54.5 27.13 55.45 27.81 56.4 28.48 57.35 29.16 58.3 29.84 59.26 30.52 60.21 31.2 61.16 31.87 62.11 32.55 63.06 33.23 64.01 33.91 64.96 34.59 65.91 35.26 66.86 35.94 67.81 36.62 68.76 37.3 69.72 37.98 70.67 38.65 71.62 39.33 72.57 40.01 73.52 40.69 74.47 41.37 75.42 42.04 76.37 42.72 77.32 43.4 78.27 44.08 79.23 44.76 80.18 45.43 81.13 46.11 82.08 46.79 83.03 47.47 83.98 48.15 84.93 48.82 85.88 49.5 86.83 50.18 87.78 50.86 88.73 51.54 89.69 52.22 90.64 52.89 91.59 53.57 92.54 54.25 93.49 54.93 94.44 55.61 95.39 56.28 96.34 56.96 97.29 57.64 98.24 58.32 99.19 59 100.15 59.67 101.1 60.35 102.05 61.03 103 61.71 103.95 62.39 104.9 63.06 105.85 63.74 106.8 64.42 107.75 65.1 108.7 65.78 109.65 66.45 110.61 67.13 111.56 67.81 112.51 68.49 113.46 69.17 114.41 69.84 115.36 70.52 116.31 71.2 117.26 71.88 118.21 72.57 119.16 73.29 120.11 74.19"/>
      </g>
    </g>
  </g>
</g>
  <g class="guide ylabels" font-size="2.82" font-family="'PT Sans Caption','Helvetica Neue','Helvetica',sans-serif" fill="#6C606B" id="img-08a892db-11">
    <text x="19.74" y="80.32" text-anchor="end" dy="0.35em">-150</text>
    <text x="19.74" y="55.88" text-anchor="end" dy="0.35em">-100</text>
    <text x="19.74" y="31.44" text-anchor="end" dy="0.35em">-50</text>
    <text x="19.74" y="7" text-anchor="end" dy="0.35em">0</text>
  </g>
  <g font-size="3.88" font-family="'PT Sans','Helvetica Neue','Helvetica',sans-serif" fill="#564A55" stroke="#000000" stroke-opacity="0.000" id="img-08a892db-12">
    <text x="8.81" y="41.66" text-anchor="middle" dy="0.35em" transform="rotate(-90, 8.81, 43.66)">log-cdf</text>
  </g>
</g>
<defs>
  <clipPath id="img-08a892db-4">
  <path d="M20.75,5 L 147.4 5 147.4 82.32 20.75 82.32" />
</clipPath>
</defs>
</svg>
